<svg width="173" height="136" viewBox="0 0 173 136" fill="none" xmlns="http://www.w3.org/2000/svg">
<g clip-path="url(#clip0_4868_1123)">
<path d="M157.055 0.0888672H0.0671387V100.485H157.055V0.0888672Z" fill="#E6E6E6"/>
<path d="M152.566 12.6812H4.55615V94.5456H152.566V12.6812Z" fill="white"/>
<path d="M156.988 0H0V6.65974H156.988V0Z" fill="#F9A826"/>
<path d="M4.9561 4.63907C5.63879 4.63907 6.19222 4.08644 6.19222 3.40474C6.19222 2.72304 5.63879 2.17041 4.9561 2.17041C4.2734 2.17041 3.71997 2.72304 3.71997 3.40474C3.71997 4.08644 4.2734 4.63907 4.9561 4.63907Z" fill="white"/>
<path d="M9.64824 4.63907C10.3309 4.63907 10.8844 4.08644 10.8844 3.40474C10.8844 2.72304 10.3309 2.17041 9.64824 2.17041C8.96554 2.17041 8.41211 2.72304 8.41211 3.40474C8.41211 4.08644 8.96554 4.63907 9.64824 4.63907Z" fill="white"/>
<path d="M14.3401 4.63907C15.0228 4.63907 15.5763 4.08644 15.5763 3.40474C15.5763 2.72304 15.0228 2.17041 14.3401 2.17041C13.6574 2.17041 13.104 2.72304 13.104 3.40474C13.104 4.08644 13.6574 4.63907 14.3401 4.63907Z" fill="white"/>
<path d="M56.0364 21.1753H18.0049V86.0516H56.0364V21.1753Z" fill="#E6E6E6"/>
<path d="M94.2943 21.1753H62.6013V39.0332H94.2943V21.1753Z" fill="#F9A826"/>
<path d="M94.2943 44.0063H62.6013V63.2206H94.2943V44.0063Z" fill="#E6E6E6"/>
<path d="M94.2943 68.1934H62.6013V86.0513H94.2943V68.1934Z" fill="#E6E6E6"/>
<path d="M139.117 21.1753H101.086V49.448H139.117V21.1753Z" fill="#E6E6E6"/>
<path d="M139.117 57.7788H101.086V86.0515H139.117V57.7788Z" fill="#E6E6E6"/>
<path d="M124.466 51.4787V45.392C124.466 43.2289 125.327 41.1543 126.858 39.6247C128.39 38.0952 130.468 37.2358 132.634 37.2358C134.8 37.2358 136.878 38.0952 138.41 39.6247C139.942 41.1543 140.802 43.2289 140.802 45.392V51.4787C140.802 51.7692 140.686 52.0477 140.48 52.2531C140.275 52.4585 139.996 52.574 139.705 52.5744H125.563C125.272 52.574 124.993 52.4585 124.788 52.2531C124.582 52.0477 124.466 51.7692 124.466 51.4787Z" fill="#2F2E41"/>
<path d="M144.712 130.691L141.831 131.487L137.385 120.77L141.637 119.595L144.712 130.691Z" fill="#FFB8B8"/>
<path d="M139.545 131.233L145.101 129.698L146.07 133.191L137.015 135.693C136.888 135.235 136.853 134.755 136.911 134.283C136.969 133.811 137.12 133.354 137.355 132.94C137.59 132.526 137.905 132.162 138.28 131.869C138.656 131.576 139.086 131.36 139.545 131.233Z" fill="#2F2E41"/>
<path d="M114.677 132.903H111.687L110.265 121.39H114.677L114.677 132.903Z" fill="#FFB8B8"/>
<path d="M109.552 132.05H115.317V135.675H105.922C105.922 135.199 106.016 134.727 106.199 134.288C106.381 133.848 106.648 133.448 106.985 133.112C107.323 132.775 107.723 132.508 108.163 132.326C108.603 132.144 109.075 132.05 109.552 132.05Z" fill="#2F2E41"/>
<path d="M111.072 68.5602C111.285 68.8478 111.559 69.0852 111.874 69.2556C112.19 69.4261 112.538 69.5254 112.896 69.5467C113.254 69.568 113.612 69.5107 113.945 69.3789C114.279 69.247 114.579 69.0438 114.825 68.7835L122.771 72.3523L122.048 67.8891L114.613 65.1844C114.148 64.8006 113.558 64.6006 112.955 64.6222C112.352 64.6438 111.778 64.8856 111.341 65.3017C110.905 65.7178 110.636 66.2793 110.586 66.8799C110.537 67.4804 110.71 68.0783 111.072 68.5602Z" fill="#FFB8B8"/>
<path d="M127.582 95.3997C125.086 95.3997 122.501 95.0284 120.329 93.924C119.176 93.3492 118.154 92.543 117.327 91.5558C116.5 90.5685 115.886 89.4215 115.523 88.1865C114.392 84.6077 115.819 81.0918 117.199 77.6918C118.054 75.5849 118.862 73.5949 119.071 71.6334L119.145 70.937C119.471 67.809 119.753 65.1075 121.314 64.0943C122.123 63.5691 123.211 63.5391 124.64 64.0025L138.061 68.3561L137.568 93.7961L137.486 93.8234C137.416 93.8469 132.684 95.3997 127.582 95.3997Z" fill="#2F2E41"/>
<path d="M124.405 56.0824C124.405 56.0824 130.988 54.1347 136.109 54.8651C136.109 54.8651 133.183 70.934 134.158 76.2903C135.133 81.6466 117.212 78.3598 120.87 73.2469L122.089 67.1602C122.089 67.1602 119.651 64.7255 121.845 61.8039L124.405 56.0824Z" fill="#F9A826"/>
<path d="M121.167 94.9176L113.054 93.3986L115.886 71.6308C116.077 71.0231 120.465 57.2314 122.458 56.4851C123.905 55.9763 125.385 55.5658 126.887 55.2564L127.176 55.1987L125.549 57.6356L119.072 73.1334L121.167 94.9176Z" fill="#2F2E41"/>
<path d="M116.94 130.236L106.457 128.491L112.34 104.504L121.094 71.6997L121.18 72.2822C121.187 72.3256 122.005 76.611 134.139 74.7095L134.246 74.6929L134.275 74.7967L148.942 126.543L136.997 128.531L126.102 90.7769L116.94 130.236Z" fill="#2F2E41"/>
<path d="M131.469 98.9911L131.476 98.807C131.483 98.6025 132.205 78.2649 131.964 70.0856C131.722 61.8786 134.383 54.7713 134.41 54.7004L134.431 54.6433L134.49 54.6265C137.933 53.6444 140.92 56.5755 140.949 56.6052L140.991 56.6471L140.011 64.7245L144.208 94.0969L131.469 98.9911Z" fill="#2F2E41"/>
<path d="M130.956 52.4328C134.263 52.4328 136.944 49.7556 136.944 46.453C136.944 43.1504 134.263 40.4731 130.956 40.4731C127.648 40.4731 124.967 43.1504 124.967 46.453C124.967 49.7556 127.648 52.4328 130.956 52.4328Z" fill="#FFB8B8"/>
<path d="M122.534 45.8792C122.536 44.1686 123.217 42.5287 124.428 41.3191C125.64 40.1096 127.282 39.4292 128.995 39.4272H130.214C131.927 39.4292 133.57 40.1096 134.781 41.3191C135.992 42.5287 136.673 44.1686 136.675 45.8792V46.0009H134.099L133.22 43.5439L133.045 46.0009H131.713L131.27 44.7612L131.181 46.0009H122.534V45.8792Z" fill="#2F2E41"/>
<path d="M130.366 53.259C130.245 53.0955 130.173 52.9011 130.158 52.6984C130.143 52.4956 130.185 52.2927 130.281 52.113C131.572 49.6593 133.381 45.1254 130.98 42.3293L130.808 42.1284H137.778V52.5781L131.446 53.6936C131.382 53.705 131.317 53.7107 131.252 53.7108C131.079 53.7107 130.909 53.6698 130.755 53.5913C130.601 53.5127 130.468 53.3989 130.366 53.259Z" fill="#2F2E41"/>
<path d="M102.303 10.115C97.4257 6.00534 91.4572 3.39986 85.1238 2.61562C78.7905 1.83139 72.3655 2.9022 66.6305 5.69777C60.8955 8.49333 56.0979 12.8931 52.8215 18.3617C49.545 23.8303 47.931 30.132 48.1759 36.4999C48.4207 42.8677 50.5138 49.0273 54.2004 54.229C57.8871 59.4306 63.0084 63.4502 68.9411 65.7985C74.8738 68.1468 81.3622 68.7226 87.6167 67.4558C93.8711 66.189 99.622 63.1343 104.17 58.6633L144.551 92.6875C145.165 93.2062 145.961 93.4599 146.763 93.3929C147.565 93.3258 148.307 92.9435 148.826 92.3299C149.346 91.7164 149.6 90.922 149.533 90.1214C149.466 89.3208 149.083 88.5796 148.468 88.0609L148.464 88.0571L108.082 54.0329C112.773 47.31 114.781 39.0802 113.712 30.9561C112.643 22.8321 108.574 15.3996 102.303 10.115ZM99.6999 50.7566C96.554 54.4795 92.3732 57.1872 87.6861 58.5374C82.9991 59.8877 78.0164 59.8197 73.368 58.3422C68.7197 56.8646 64.6145 54.0439 61.5716 50.2366C58.5287 46.4294 56.6847 41.8066 56.2729 36.9529C55.8611 32.0992 56.9 27.2325 59.2581 22.9684C61.6162 18.7042 65.1876 15.234 69.5208 12.9967C73.8539 10.7594 78.7542 9.85535 83.6019 10.399C88.4496 10.9426 93.027 12.9094 96.7553 16.0507C99.2308 18.1365 101.271 20.6887 102.758 23.5616C104.246 26.4346 105.152 29.572 105.426 32.7947C105.699 36.0175 105.334 39.2624 104.352 42.3443C103.369 45.4262 101.789 48.2847 99.6999 50.7566Z" fill="#3F3D56"/>
<path opacity="0.3" d="M64.9435 53.6969C60.2119 49.7098 57.1549 44.0917 56.3795 37.9581C55.6042 31.8245 57.1672 25.624 60.7582 20.5879C60.2866 21.0621 59.8307 21.5588 59.3905 22.0779C57.3017 24.5498 55.7209 27.4083 54.7384 30.4902C53.756 33.5721 53.391 36.8171 53.6645 40.0398C53.9379 43.2626 54.8443 46.4 56.332 49.2729C57.8197 52.1458 59.8595 54.6981 62.335 56.7838C64.8105 58.8696 67.6731 60.4481 70.7595 61.4291C73.8459 62.4101 77.0956 62.7746 80.323 62.5015C83.5505 62.2285 86.6924 61.3234 89.5695 59.8378C92.4467 58.3523 95.0026 56.3155 97.0914 53.8436C97.5306 53.3238 97.9442 52.7915 98.3322 52.2467C93.9648 56.6286 88.1067 59.2102 81.9213 59.4788C75.7359 59.7475 69.6755 57.6836 64.9435 53.6969Z" fill="black"/>
<path d="M132.878 79.0143C133.227 79.0993 133.589 79.107 133.941 79.0369C134.292 78.9669 134.624 78.8207 134.913 78.6087C135.202 78.3967 135.44 78.1241 135.612 77.81C135.784 77.4959 135.885 77.148 135.908 76.7908L144.303 74.4638L140.89 71.4927L133.441 74.1579C132.838 74.1597 132.256 74.3824 131.806 74.784C131.356 75.1855 131.069 75.7379 130.999 76.3365C130.93 76.9351 131.083 77.5384 131.429 78.0319C131.776 78.5254 132.291 78.875 132.878 79.0143Z" fill="#FFB8B8"/>
<path d="M136.368 77.7828L135.857 72.9363L142.87 69.0727L138.298 63.5459L139.044 57.3375L140.902 56.5425L140.959 56.6167C141.835 57.7415 149.519 67.6411 149.519 68.8649C149.519 70.1218 148.049 73.8129 146.038 74.817C144.098 75.7855 136.814 77.6679 136.505 77.7477L136.368 77.7828Z" fill="#2F2E41"/>
<path d="M172.756 136H79.8598C79.7951 136 79.7331 135.974 79.6874 135.929C79.6416 135.883 79.616 135.821 79.616 135.757C79.616 135.692 79.6416 135.63 79.6874 135.584C79.7331 135.539 79.7951 135.513 79.8598 135.513H172.756C172.821 135.513 172.883 135.539 172.929 135.584C172.974 135.63 173 135.692 173 135.757C173 135.821 172.974 135.883 172.929 135.929C172.883 135.974 172.821 136 172.756 136Z" fill="#CCCCCC"/>
</g>
<defs>
<clipPath id="clip0_4868_1123">
<rect width="173" height="136" fill="white"/>
</clipPath>
</defs>
</svg>
