<svg width="40" height="40" viewBox="0 0 40 40" fill="none" xmlns="http://www.w3.org/2000/svg">
<rect x="0.663086" width="39.0776" height="40" rx="19.5388" fill="#222225"/>
<path d="M26.2133 18.5689C26.2043 16.9302 26.954 15.6934 28.4716 14.7825C27.6225 13.5814 26.3398 12.9205 24.6461 12.7911C23.0428 12.666 21.2904 13.7153 20.649 13.7153C19.9716 13.7153 18.4179 12.8357 17.1985 12.8357C14.6783 12.8759 12 14.8227 12 18.7832C12 19.9531 12.2168 21.1616 12.6504 22.4089C13.2285 24.0476 15.3151 28.0662 17.492 27.9992C18.6302 27.9724 19.4341 27.1999 20.9155 27.1999C22.3518 27.1999 23.097 27.9992 24.3661 27.9992C26.5611 27.9679 28.449 24.3155 29 22.6723C26.0553 21.3015 26.2133 18.6537 26.2133 18.5689ZM23.657 11.2372C24.89 9.7905 24.7771 8.4733 24.741 8C23.6525 8.06251 22.3924 8.73228 21.6743 9.55832C20.8839 10.4424 20.4187 11.5364 20.5181 12.7687C21.6969 12.858 22.7718 12.2597 23.657 11.2372Z" fill="white"/>
</svg>
