<svg width="6" height="6" viewBox="0 0 6 6" fill="none" xmlns="http://www.w3.org/2000/svg">
<path d="M4.92 0.3C4.92 0.220435 4.88839 0.144129 4.83213 0.0878679C4.77587 0.031607 4.69956 0 4.62 0C4.54043 0 4.46413 0.031607 4.40787 0.0878679C4.35161 0.144129 4.32 0.220435 4.32 0.3H4.92ZM4.32 1.38C4.32 1.45956 4.35161 1.53587 4.40787 1.59213C4.46413 1.64839 4.54043 1.68 4.62 1.68C4.69956 1.68 4.77587 1.64839 4.83213 1.59213C4.88839 1.53587 4.92 1.45956 4.92 1.38H4.32ZM1.68 0.3C1.68 0.220435 1.64839 0.144129 1.59213 0.0878679C1.53587 0.031607 1.45957 0 1.38 0C1.30044 0 1.22413 0.031607 1.16787 0.0878679C1.11161 0.144129 1.08 0.220435 1.08 0.3H1.68ZM1.08 1.38C1.08 1.45956 1.11161 1.53587 1.16787 1.59213C1.22413 1.64839 1.30044 1.68 1.38 1.68C1.45957 1.68 1.53587 1.64839 1.59213 1.59213C1.64839 1.53587 1.68 1.45956 1.68 1.38H1.08ZM5.4 2.04V4.5H6V2.04H5.4ZM4.5 5.4H1.5V6H4.5V5.4ZM0.600001 4.5V2.04H1.23964e-06V4.5H0.600001ZM1.5003 1.14H4.4994V0.54H1.5009V1.14H1.5003ZM5.7 2.16H0.300001V2.76H5.7V2.16ZM4.32 0.3V1.38H4.92V0.3H4.32ZM1.08 0.3V1.38H1.68V0.3H1.08ZM1.5 5.4C1.2087 5.4 1.0203 5.3994 0.881701 5.3808C0.751501 5.3631 0.710701 5.3349 0.687901 5.3121L0.263701 5.7363C0.416701 5.8893 0.605101 5.949 0.801601 5.9754C0.990001 6.0006 1.2255 6 1.5 6V5.4ZM1.23964e-06 4.5C1.23964e-06 4.7745 -0.000598754 5.0103 0.0246012 5.1984C0.0510012 5.3949 0.110701 5.5836 0.263701 5.7363L0.687901 5.3121C0.665101 5.2893 0.636901 5.2485 0.619201 5.1183C0.600601 4.98 0.600001 4.7913 0.600001 4.5H1.23964e-06ZM5.4 4.5C5.4 4.7913 5.3994 4.9797 5.3808 5.1183C5.3631 5.2485 5.3349 5.2893 5.3121 5.3121L5.7363 5.7363C5.8893 5.5833 5.949 5.3949 5.9754 5.1984C6.0006 5.01 6 4.7745 6 4.5H5.4ZM4.5 6C4.7745 6 5.0103 6.0006 5.1984 5.9754C5.3949 5.949 5.5836 5.8893 5.7363 5.7363L5.3121 5.3121C5.2893 5.3349 5.2485 5.3631 5.1183 5.3808C4.9797 5.3994 4.7913 5.4 4.5 5.4V6ZM6 2.04C6 1.7655 6.0006 1.5297 5.9754 1.3416C5.949 1.1451 5.8893 0.9564 5.7363 0.8037L5.3121 1.2279C5.3349 1.2507 5.3631 1.2915 5.3808 1.4217C5.3994 1.5603 5.4 1.7487 5.4 2.04H6ZM4.4997 1.14C4.791 1.14 4.9797 1.1406 5.1183 1.1592C5.2485 1.1769 5.2893 1.2051 5.3121 1.2279L5.7363 0.8037C5.5833 0.6507 5.3949 0.591 5.1981 0.5646C5.01 0.5394 4.7742 0.54 4.5 0.54L4.4997 1.14ZM0.600001 2.04C0.600001 1.7487 0.600601 1.5603 0.619201 1.4217C0.636901 1.2915 0.665101 1.2507 0.687901 1.2279L0.263701 0.8037C0.110701 0.9567 0.0510012 1.1451 0.0246012 1.3416C-0.000598754 1.53 1.23964e-06 1.7655 1.23964e-06 2.04H0.600001ZM1.5003 0.54C1.2258 0.54 0.990001 0.5394 0.801901 0.5646C0.605101 0.591 0.416401 0.6507 0.263701 0.8037L0.687901 1.2279C0.710701 1.2051 0.751501 1.1769 0.881701 1.1592C1.0206 1.1406 1.2087 1.14 1.5003 1.14V0.54Z" fill="#FCA311"/>
</svg>
