<svg width="58" height="46" viewBox="0 0 58 46" fill="none" xmlns="http://www.w3.org/2000/svg">
<path d="M51.6668 11.6673L29.0001 25.834L6.33342 11.6673V6.00065L29.0001 20.1673L51.6668 6.00065M51.6668 0.333984H6.33342C3.18841 0.333984 0.666748 2.85565 0.666748 6.00065V40.0006C0.666748 41.5035 1.26377 42.9449 2.32648 44.0076C3.38918 45.0703 4.83052 45.6673 6.33342 45.6673H51.6668C53.1696 45.6673 54.611 45.0703 55.6737 44.0076C56.7364 42.9449 57.3334 41.5035 57.3334 40.0006V6.00065C57.3334 4.49776 56.7364 3.05642 55.6737 1.99371C54.611 0.931006 53.1696 0.333984 51.6668 0.333984Z" fill="#F09F1B"/>
</svg>
