<svg width="40" height="40" viewBox="0 0 40 40" fill="none" xmlns="http://www.w3.org/2000/svg">
<rect width="39.0776" height="40" rx="19.5388" fill="#222225"/>
<path d="M19.9279 29.1598C14.9714 29.1598 10.9385 24.827 10.9385 19.4998C10.9385 14.1727 14.9714 9.83984 19.9279 9.83984C22.1733 9.83984 24.3226 10.734 25.9818 12.3582L26.2841 12.6552L23.3197 15.8412L23.0449 15.5886C22.1748 14.788 21.0681 14.3466 19.9279 14.3466C17.284 14.3466 15.1317 16.6583 15.1317 19.4998C15.1317 22.3414 17.284 24.653 19.9279 24.653C21.8344 24.653 23.341 23.6063 24.0509 21.823H19.5371V17.4737L28.3494 17.4868L28.415 17.8198C28.8745 20.1643 28.5066 23.6129 26.6443 26.0804C25.1026 28.123 22.8434 29.1598 19.9279 29.1598Z" fill="white"/>
</svg>
