<svg width="939" height="736" viewBox="0 0 939 736" fill="none" xmlns="http://www.w3.org/2000/svg">
<path d="M338 388.203C343.956 389.264 356.044 388.156 356.749 375.236C357.454 362.316 371.188 361.239 377.967 362.316" stroke="white" stroke-width="6"/>
<path d="M455.653 198.403C457.207 196.573 459.783 192.454 457.65 190.624C455.517 188.795 458.475 184.137 460.221 182.038" stroke="white" stroke-width="4"/>
<path d="M575.911 284.42C578.405 283.074 582.606 279.228 579.461 274.61C576.316 269.992 581.138 265.684 583.942 264.107" stroke="white" stroke-width="3"/>
<path d="M545.911 421.421C548.405 420.075 552.606 416.229 549.461 411.611C546.316 406.993 551.138 402.685 553.942 401.108" stroke="white" stroke-width="3"/>
<path d="M482.476 214.738C482.756 211.918 481.92 206.283 476.332 206.305C470.745 206.327 469.873 199.92 470.136 196.714" stroke="#FCA311" stroke-width="3"/>
<path d="M431.911 218.42C434.405 217.074 438.606 213.228 435.461 208.61C432.316 203.992 437.138 199.684 439.942 198.107" stroke="#FCA311" stroke-width="3"/>
<path d="M482.911 444.421C485.405 443.075 489.606 439.229 486.461 434.611C483.316 429.993 488.138 425.685 490.942 424.108" stroke="#FCA311" stroke-width="3"/>
<path d="M401.737 229.713C397.539 225.357 387.103 219.157 378.947 229.202C370.79 239.247 359.04 232.055 354.185 227.204" stroke="white" stroke-width="6"/>
<rect x="390.925" y="415.743" width="11.9635" height="24.4247" transform="rotate(-43.4278 390.925 415.743)" fill="#FCA311"/>
<rect x="532.63" y="217.978" width="18.76" height="44.8119" transform="rotate(-37.0422 532.63 217.978)" fill="#FCA311"/>
<rect x="354.092" y="284" width="12.6219" height="36.7837" transform="rotate(19.1916 354.092 284)" fill="#FCA311"/>
<rect x="571.725" y="304.042" width="12.6219" height="36.7837" transform="rotate(0.0928995 571.725 304.042)" fill="#FCA311"/>
<circle cx="469.5" cy="318.5" r="88" stroke="#FCA311" stroke-width="5"/>
<path d="M520.349 288.574L460.675 348.352C460.155 348.874 459.537 349.289 458.857 349.572C458.177 349.854 457.448 350 456.712 350C455.976 350 455.246 349.854 454.566 349.572C453.886 349.289 453.269 348.874 452.749 348.352L426.641 322.199C426.121 321.678 425.708 321.059 425.427 320.378C425.145 319.697 425 318.967 425 318.229C425 317.492 425.145 316.762 425.427 316.081C425.708 315.4 426.121 314.781 426.641 314.26C427.162 313.739 427.78 313.325 428.46 313.043C429.139 312.761 429.868 312.616 430.604 312.616C431.34 312.616 432.069 312.761 432.749 313.043C433.429 313.325 434.047 313.739 434.567 314.26L456.717 336.448L512.433 280.644C513.484 279.591 514.909 279 516.396 279C517.882 279 519.308 279.591 520.359 280.644C521.41 281.697 522 283.125 522 284.614C522 286.103 521.41 287.531 520.359 288.583L520.349 288.574Z" fill="#FCA311"/>
</svg>
