<svg width="73" height="73" viewBox="0 0 73 73" fill="none" xmlns="http://www.w3.org/2000/svg">
<g clip-path="url(#clip0_6658_1072)">
<path d="M53.5336 53.5337H48.6669V48.667H53.5336V53.5337ZM38.9336 53.5337H43.8003V48.667H38.9336V53.5337ZM63.2669 53.5337H58.4003V48.667H63.2669V53.5337Z" fill="#F09F1B"/>
<path fill-rule="evenodd" clip-rule="evenodd" d="M14.6 29.2V17.0333C14.6 14.7965 15.0406 12.5815 15.8966 10.515C16.7526 8.44838 18.0073 6.57064 19.5889 4.98895C21.1706 3.40726 23.0484 2.15259 25.115 1.29659C27.1815 0.44058 29.3965 0 31.6333 0C33.8702 0 36.0851 0.44058 38.1517 1.29659C40.2183 2.15259 42.096 3.40726 43.6777 4.98895C45.2594 6.57064 46.5141 8.44838 47.3701 10.515C48.2261 12.5815 48.6667 14.7965 48.6667 17.0333V29.2H55.9667C57.9027 29.2 59.7595 29.9691 61.1285 31.3381C62.4976 32.7071 63.2667 34.5639 63.2667 36.5V39.1767C66.017 39.7352 68.4898 41.2273 70.2659 43.4003C72.042 45.5733 73.0122 48.2935 73.0122 51.1C73.0122 53.9065 72.042 56.6267 70.2659 58.7997C68.4898 60.9727 66.017 62.4648 63.2667 63.0233V65.7C63.2667 67.6361 62.4976 69.4929 61.1285 70.8619C59.7595 72.2309 57.9027 73 55.9667 73H7.3C5.36392 73 3.50714 72.2309 2.13812 70.8619C0.769105 69.4929 0 67.6361 0 65.7L0 36.5C0 34.5639 0.769105 32.7071 2.13812 31.3381C3.50714 29.9691 5.36392 29.2 7.3 29.2H14.6ZM19.4667 17.0333C19.4667 13.8065 20.7485 10.7119 23.0302 8.4302C25.3119 6.14851 28.4065 4.86667 31.6333 4.86667C34.8601 4.86667 37.9548 6.14851 40.2365 8.4302C42.5182 10.7119 43.8 13.8065 43.8 17.0333V29.2H19.4667V17.0333ZM41.3667 43.8C39.4306 43.8 37.5738 44.5691 36.2048 45.9381C34.8358 47.3071 34.0667 49.1639 34.0667 51.1C34.0667 53.0361 34.8358 54.8929 36.2048 56.2619C37.5738 57.6309 39.4306 58.4 41.3667 58.4H60.8333C62.7694 58.4 64.6262 57.6309 65.9952 56.2619C67.3642 54.8929 68.1333 53.0361 68.1333 51.1C68.1333 49.1639 67.3642 47.3071 65.9952 45.9381C64.6262 44.5691 62.7694 43.8 60.8333 43.8H41.3667Z" fill="#F09F1B"/>
</g>
<defs>
<clipPath id="clip0_6658_1072">
<rect width="73" height="73" fill="white"/>
</clipPath>
</defs>
</svg>
