<svg width="60" height="80" viewBox="0 0 60 80" fill="none" xmlns="http://www.w3.org/2000/svg">
<path d="M7.50001 79.5C5.43751 79.5 3.67126 78.765 2.20126 77.295C0.731256 75.825 -0.00249363 74.06 6.36673e-06 72V34.5C6.36673e-06 32.4375 0.735006 30.6713 2.20501 29.2013C3.67501 27.7313 5.44001 26.9975 7.50001 27H11.25V19.5C11.25 14.3125 13.0788 9.89 16.7363 6.2325C20.3938 2.575 24.815 0.747503 30 0.750003C35.1875 0.750003 39.61 2.57875 43.2675 6.23625C46.925 9.89375 48.7525 14.315 48.75 19.5V27H52.5C54.5625 27 56.3288 27.735 57.7988 29.205C59.2688 30.675 60.0025 32.44 60 34.5V72C60 74.0625 59.265 75.8288 57.795 77.2988C56.325 78.7688 54.56 79.5025 52.5 79.5H7.50001ZM30 60.75C32.0625 60.75 33.8288 60.015 35.2988 58.545C36.7688 57.075 37.5025 55.31 37.5 53.25C37.5 51.1875 36.765 49.4213 35.295 47.9513C33.825 46.4813 32.06 45.7475 30 45.75C27.9375 45.75 26.1713 46.485 24.7013 47.955C23.2313 49.425 22.4975 51.19 22.5 53.25C22.5 55.3125 23.235 57.0788 24.705 58.5488C26.175 60.0188 27.94 60.7525 30 60.75ZM18.75 27H41.25V19.5C41.25 16.375 40.1563 13.7188 37.9688 11.5313C35.7813 9.34375 33.125 8.25 30 8.25C26.875 8.25 24.2188 9.34375 22.0313 11.5313C19.8438 13.7188 18.75 16.375 18.75 19.5V27Z" fill="#F09F1B"/>
</svg>
