<svg width="15" height="16" viewBox="0 0 15 16" fill="none" xmlns="http://www.w3.org/2000/svg">
<path d="M10.0186 5.53706C9.91519 5.5203 9.82788 5.4683 9.75672 5.38106C9.69134 5.30144 9.66384 5.21172 9.67422 5.11191C9.68922 4.96639 9.76672 4.87134 9.90672 4.82677C9.98403 4.80239 10.0796 4.80925 10.1935 4.84734C10.6415 4.99744 11.0808 5.15153 11.5111 5.30963C11.5249 5.31467 11.5362 5.32482 11.5425 5.33794C11.5489 5.35106 11.5498 5.36611 11.5452 5.37991C11.4183 5.76049 11.2844 6.1323 11.1436 6.49534C11.0956 6.61915 11.0488 6.70106 11.0035 6.74106C10.9485 6.78944 10.8823 6.81591 10.805 6.82049C10.7361 6.82468 10.6704 6.80868 10.6077 6.77249C10.4454 6.67915 10.3942 6.51572 10.4542 6.2822C10.4646 6.2422 10.4513 6.23172 10.4144 6.25077L7.18307 7.91991C7.16861 7.92741 7.15179 7.9291 7.1361 7.92463C7.12041 7.92016 7.10707 7.90988 7.09884 7.89591L6.43999 6.77077C6.43345 6.75937 6.42263 6.75099 6.40987 6.74746C6.39712 6.74393 6.38348 6.74553 6.37192 6.75191C5.58192 7.19115 4.79711 7.61896 4.01749 8.03534C3.89788 8.09972 3.7973 8.12582 3.71576 8.11363C3.58576 8.09458 3.4973 8.01763 3.45038 7.88277C3.38346 7.69039 3.44788 7.54068 3.64365 7.43363C4.63326 6.8923 5.62615 6.34677 6.6223 5.79706C6.64063 5.78685 6.66226 5.78418 6.68247 5.78964C6.70268 5.7951 6.71984 5.80825 6.73019 5.8262L7.35672 6.91363C7.3948 6.97953 7.44749 6.99477 7.5148 6.95934L10.0354 5.63934C10.1319 5.58868 10.1263 5.55458 10.0186 5.53706Z" fill="#FFD48F"/>
<path d="M9.54919 9.99642C9.45381 9.93547 9.40612 9.84633 9.40612 9.72899C9.40458 8.85775 9.40381 7.99223 9.40381 7.13242C9.40384 7.10305 9.41141 7.07447 9.42573 7.04973C9.44006 7.02498 9.46059 7.00498 9.48515 6.99185L10.114 6.65414C10.1225 6.6495 10.1321 6.6472 10.1418 6.64748C10.1515 6.64776 10.161 6.65061 10.1694 6.65574C10.1778 6.66086 10.1847 6.6681 10.1896 6.67674C10.1944 6.68537 10.197 6.69511 10.1971 6.70499C10.1971 7.67756 10.1971 8.63852 10.1971 9.58785C10.1971 9.73604 10.1825 9.83699 10.1532 9.89071C10.0986 9.99128 9.99785 10.0469 9.85092 10.0576C9.72746 10.0667 9.62689 10.0463 9.54919 9.99642Z" fill="#FFD48F"/>
<path d="M8.34808 9.97531C8.28269 9.92312 8.25 9.8555 8.25 9.77245V7.73188C8.25 7.70352 8.25759 7.67586 8.27195 7.65196C8.2863 7.62806 8.30686 7.60885 8.33135 7.59645L8.97404 7.26845C8.97938 7.26573 8.98533 7.26443 8.99133 7.26468C8.99733 7.26492 9.00318 7.2667 9.00832 7.26985C9.01346 7.273 9.01773 7.27741 9.02072 7.28267C9.02371 7.28792 9.02531 7.29385 9.02538 7.29988C9.02962 8.08198 9.03077 8.87245 9.02885 9.67131C9.02846 9.88464 8.94481 10.0094 8.77788 10.0456C8.70173 10.0624 8.62865 10.0677 8.55865 10.0616C8.48173 10.0547 8.41154 10.026 8.34808 9.97531Z" fill="#FFD48F"/>
<path fill-rule="evenodd" clip-rule="evenodd" d="M5.47854 9.94308C5.47855 9.94308 5.47856 9.94308 5.47857 9.94308C5.5178 9.89623 5.53781 9.85813 5.53857 9.8288C5.56204 9.06689 5.56223 8.30975 5.53915 7.55737C5.53896 7.5495 5.53679 7.54179 5.53285 7.53496C5.52891 7.52814 5.52332 7.52242 5.51662 7.51836C5.50992 7.5143 5.50232 7.51202 5.49456 7.51175C5.48679 7.51147 5.4791 7.51321 5.47223 7.5168L4.93286 7.79791C4.93286 7.79789 4.93286 7.79787 4.93286 7.79785C4.82516 7.8409 4.77113 7.93099 4.77074 8.06814C4.76882 8.61366 4.77074 9.15937 4.77651 9.70528C4.77766 9.80737 4.79516 9.88357 4.82901 9.93385C4.88055 10.0108 4.95497 10.0533 5.05228 10.0613C5.13536 10.0685 5.20978 10.0672 5.27555 10.0573C5.35397 10.0451 5.42164 10.007 5.47854 9.94308ZM4.84558 7.96834C4.85368 7.95418 4.8636 7.94108 4.87511 7.92937C4.89053 7.91353 4.90288 7.89754 4.91215 7.88139C4.90288 7.89751 4.89055 7.91347 4.87516 7.92928C4.86362 7.94101 4.85369 7.95415 4.84558 7.96834Z" fill="#FFD48F"/>
<path d="M7.22254 9.99711C7.13831 9.94987 7.09619 9.87826 7.09619 9.78226V8.33311C7.09619 8.30502 7.10377 8.27755 7.11811 8.25368C7.13245 8.2298 7.153 8.21044 7.17754 8.19768L7.82888 7.85883C7.83225 7.85715 7.83599 7.85633 7.83975 7.85646C7.84351 7.85658 7.84716 7.85764 7.85035 7.85954C7.85354 7.86144 7.85616 7.8641 7.85796 7.86728C7.85976 7.87046 7.86067 7.87404 7.86061 7.87768C7.86061 8.52568 7.86061 9.16168 7.86061 9.78568C7.86061 9.90454 7.79888 9.98549 7.67542 10.0285C7.51158 10.0857 7.36061 10.0752 7.22254 9.99711Z" fill="#FFD48F"/>
<path d="M3.75658 10.0157C3.65774 9.96736 3.6085 9.89059 3.60889 9.78545L3.61581 8.41002C3.61596 8.40237 3.61914 8.39506 3.62471 8.38955C3.63027 8.38404 3.63781 8.38074 3.64581 8.38031C3.89427 8.36469 4.11331 8.29307 4.30293 8.16545C4.35447 8.1304 4.38043 8.14393 4.38081 8.20602C4.38504 8.69936 4.38658 9.18945 4.38543 9.67631C4.38504 9.78374 4.36947 9.86278 4.3387 9.91345C4.28985 9.99421 4.21485 10.0411 4.1137 10.054C4.05216 10.0616 3.99216 10.0641 3.9337 10.0615C3.87293 10.0588 3.81389 10.0435 3.75658 10.0157Z" fill="#FFD48F"/>
<path fill-rule="evenodd" clip-rule="evenodd" d="M6.68986 8.77332L6.68998 8.77183C6.69382 8.48078 6.69401 8.18954 6.69055 7.89811C6.6894 7.80592 6.66805 7.71925 6.62651 7.63811C6.53075 7.4503 6.42978 7.26668 6.32363 7.08725C6.31976 7.08077 6.31469 7.07508 6.3087 7.0705C6.30272 7.06593 6.29594 7.06256 6.28876 7.06059C6.28157 7.05863 6.27412 7.0581 6.26684 7.05905C6.25956 7.06 6.25259 7.0624 6.24632 7.06611L6.02998 7.1924C5.96651 7.22973 5.93344 7.28992 5.93075 7.37297C5.9069 8.11583 5.90594 8.83049 5.92786 9.51697C5.95594 9.61335 5.96555 9.68878 5.95671 9.74325C5.94901 9.79049 5.96017 9.82059 5.99017 9.83354C6.01084 9.84197 6.02638 9.85284 6.03344 9.86383C6.08651 9.94383 6.13786 9.98935 6.18748 10.0004C6.34478 10.0351 6.47728 10.0034 6.58498 9.90554C6.59905 9.89304 6.60772 9.87607 6.60921 9.85811L6.68986 8.77332Z" fill="#FFD48F"/>
</svg>
