<svg width="4" height="6" viewBox="0 0 4 6" fill="none" xmlns="http://www.w3.org/2000/svg">
<path d="M1.0977 5.173C0.772341 5.17081 0.455499 5.06878 0.19 4.8807L0 4.7461L0.21 4.2948L2.21 0L3.636 3.0613L4 3.8427L3.4609 3.7362C3.29601 3.70226 3.1244 3.72938 2.978 3.8125L2.9742 3.8146C2.93053 3.83893 2.88957 3.86783 2.852 3.9008L2.7213 4.0532C2.694 4.0879 2.5785 4.2354 2.473 4.3703L2.283 4.6135L2.277 4.6209C2.14903 4.77318 1.99283 4.89929 1.817 4.9923C1.7859 5.0087 1.7526 5.0248 1.7185 5.0399C1.52335 5.1278 1.31173 5.17317 1.0977 5.173ZM0.7134 4.5363C0.9667 4.6421 1.2447 4.6408 1.4893 4.5305L1.4914 4.5296C1.5137 4.5196 1.5353 4.5096 1.5553 4.4987C1.66661 4.43991 1.76562 4.36034 1.847 4.2643C1.8654 4.241 1.946 4.1379 2.0333 4.0263C2.145 3.8836 2.2676 3.7269 2.2861 3.7034L2.2937 3.6942L2.4507 3.5112L2.4628 3.5C2.53495 3.43374 2.61455 3.37609 2.7 3.3282C2.81754 3.2606 2.94547 3.21295 3.0786 3.1872L2.21 1.3223L0.7134 4.5363Z" fill="#FFD48F"/>
</svg>
