<svg width="50" height="65" viewBox="0 0 50 65" fill="none" xmlns="http://www.w3.org/2000/svg">
<g clip-path="url(#clip0_1683_541)">
<path d="M13.7212 64.6625C9.65426 64.6351 5.69374 63.3597 2.375 61.0088L0 59.3262L2.625 53.685L27.625 0L45.45 38.2663L50 48.0337L43.2612 46.7025C41.2001 46.2783 39.055 46.6172 37.225 47.6562L37.1775 47.6825C36.6317 47.9867 36.1197 48.3478 35.65 48.76L34.0163 50.665C33.675 51.0988 32.2313 52.9425 30.9125 54.6287L28.5375 57.6688L28.4625 57.7612C26.8629 59.6648 24.9104 61.2412 22.7125 62.4038C22.3237 62.6088 21.9075 62.81 21.4813 62.9987C19.0419 64.0975 16.3966 64.6646 13.7212 64.6625ZM8.9175 56.7038C12.0837 58.0262 15.5587 58.01 18.6162 56.6312L18.6425 56.62C18.9212 56.495 19.1912 56.37 19.4412 56.2337C20.8326 55.4988 22.0703 54.5043 23.0875 53.3037C23.3175 53.0125 24.325 51.7238 25.4163 50.3288C26.8125 48.545 28.345 46.5863 28.5763 46.2925L28.6712 46.1775L30.6338 43.89L30.785 43.75C31.6869 42.9218 32.6819 42.2011 33.75 41.6025C35.2193 40.7575 36.8184 40.1619 38.4825 39.84L27.625 16.5287L8.9175 56.7038Z" fill="#FCA311"/>
</g>
<defs>
<clipPath id="clip0_1683_541">
<rect width="50" height="64.6625" fill="white"/>
</clipPath>
</defs>
</svg>
